<svg width="128" height="24" viewBox="0 0 128 24" fill="none" xmlns="http://www.w3.org/2000/svg">
	<circle cx="20" cy="12" r="10" fill="#56CCF2" />
	<circle cx="10" cy="12" r="10" fill="#2F80ED" />
	<path d="M39.12 19C38.9867 19 38.8733 18.9533 38.78 18.86C38.6867 18.7667 38.64 18.6533 38.64 18.52V7.46H34.94C34.8067 7.46 34.6933 7.41333 34.6 7.32C34.5067 7.22667 34.46 7.11333 34.46 6.98V5.5C34.46 5.35333 34.5 5.23333 34.58 5.14C34.6733 5.04667 34.7933 5 34.94 5H45.14C45.2867 5 45.4067 5.04667 45.5 5.14C45.5933 5.23333 45.64 5.35333 45.64 5.5V6.98C45.64 7.11333 45.5933 7.22667 45.5 7.32C45.4067 7.41333 45.2867 7.46 45.14 7.46H41.46V18.52C41.46 18.6533 41.4133 18.7667 41.32 18.86C41.2267 18.9533 41.1067 19 40.96 19H39.12ZM50.0734 19.2C48.5934 19.2 47.4134 18.7733 46.5334 17.92C45.6668 17.0533 45.2068 15.84 45.1534 14.28L45.1334 13.78L45.1534 13.28C45.2201 11.76 45.6868 10.5667 46.5534 9.7C47.4334 8.83333 48.6068 8.4 50.0734 8.4C51.6468 8.4 52.8601 8.88 53.7134 9.84C54.5801 10.8 55.0134 12.08 55.0134 13.68V14.1C55.0134 14.2333 54.9668 14.3467 54.8734 14.44C54.7801 14.5333 54.6601 14.58 54.5134 14.58H47.8734V14.74C47.9001 15.4733 48.1001 16.0933 48.4734 16.6C48.8601 17.0933 49.3868 17.34 50.0534 17.34C50.8401 17.34 51.4734 17.0333 51.9534 16.42C52.0734 16.2733 52.1668 16.18 52.2334 16.14C52.3134 16.1 52.4268 16.08 52.5734 16.08H54.2934C54.4134 16.08 54.5134 16.12 54.5934 16.2C54.6868 16.2667 54.7334 16.3533 54.7334 16.46C54.7334 16.78 54.5401 17.16 54.1534 17.6C53.7801 18.0267 53.2401 18.4 52.5334 18.72C51.8268 19.04 51.0068 19.2 50.0734 19.2ZM52.2934 12.9V12.84C52.2934 12.0533 52.0934 11.42 51.6934 10.94C51.3068 10.46 50.7668 10.22 50.0734 10.22C49.3801 10.22 48.8401 10.46 48.4534 10.94C48.0668 11.42 47.8734 12.0533 47.8734 12.84V12.9H52.2934ZM57.6164 19C57.4831 19 57.3697 18.9533 57.2764 18.86C57.1831 18.7667 57.1364 18.6533 57.1364 18.52V9.08C57.1364 8.94667 57.1831 8.83333 57.2764 8.74C57.3697 8.64667 57.4831 8.6 57.6164 8.6H59.1764C59.3097 8.6 59.4231 8.64667 59.5164 8.74C59.6097 8.83333 59.6564 8.94667 59.6564 9.08V9.76C60.3497 8.85333 61.3164 8.4 62.5564 8.4C64.0364 8.4 65.0697 8.99333 65.6564 10.18C65.9764 9.64667 66.4297 9.22 67.0164 8.9C67.6031 8.56667 68.2364 8.4 68.9164 8.4C70.0097 8.4 70.9031 8.77333 71.5964 9.52C72.2897 10.2667 72.6364 11.3533 72.6364 12.78V18.52C72.6364 18.6533 72.5897 18.7667 72.4964 18.86C72.4164 18.9533 72.3031 19 72.1564 19H70.5164C70.3831 19 70.2697 18.9533 70.1764 18.86C70.0831 18.7667 70.0364 18.6533 70.0364 18.52V12.94C70.0364 12.1 69.8564 11.4933 69.4964 11.12C69.1497 10.7333 68.6831 10.54 68.0964 10.54C67.5764 10.54 67.1297 10.7333 66.7564 11.12C66.3964 11.5067 66.2164 12.1133 66.2164 12.94V18.52C66.2164 18.6533 66.1697 18.7667 66.0764 18.86C65.9831 18.9533 65.8697 19 65.7364 19H64.0964C63.9631 19 63.8497 18.9533 63.7564 18.86C63.6631 18.7667 63.6164 18.6533 63.6164 18.52V12.94C63.6164 12.1 63.4297 11.4933 63.0564 11.12C62.6964 10.7333 62.2364 10.54 61.6764 10.54C61.1431 10.54 60.6897 10.7333 60.3164 11.12C59.9564 11.5067 59.7764 12.1133 59.7764 12.94V18.52C59.7764 18.6533 59.7297 18.7667 59.6364 18.86C59.5431 18.9533 59.4297 19 59.2964 19H57.6164ZM75.6833 22.8C75.5499 22.8 75.4366 22.7533 75.3433 22.66C75.2499 22.58 75.2033 22.4667 75.2033 22.32V9.08C75.2033 8.93333 75.2499 8.82 75.3433 8.74C75.4366 8.64667 75.5499 8.6 75.6833 8.6H77.2633C77.4099 8.6 77.5233 8.64667 77.6033 8.74C77.6966 8.82 77.7433 8.93333 77.7433 9.08V9.88C78.4899 8.89333 79.5566 8.4 80.9433 8.4C82.2899 8.4 83.3233 8.82667 84.0433 9.68C84.7633 10.52 85.1499 11.66 85.2033 13.1C85.2166 13.26 85.2233 13.4933 85.2233 13.8C85.2233 14.12 85.2166 14.36 85.2033 14.52C85.1499 15.92 84.7633 17.0533 84.0433 17.92C83.3233 18.7733 82.2899 19.2 80.9433 19.2C79.5966 19.2 78.5699 18.7267 77.8633 17.78V22.32C77.8633 22.4667 77.8166 22.58 77.7233 22.66C77.6433 22.7533 77.5299 22.8 77.3833 22.8H75.6833ZM80.2033 17.06C81.6433 17.06 82.4099 16.1733 82.5033 14.4C82.5166 14.2667 82.5233 14.0667 82.5233 13.8C82.5233 13.5333 82.5166 13.3333 82.5033 13.2C82.4099 11.4267 81.6433 10.54 80.2033 10.54C79.4299 10.54 78.8566 10.7867 78.4833 11.28C78.1099 11.7733 77.9033 12.38 77.8633 13.1L77.8433 13.86L77.8633 14.64C77.8899 15.3067 78.0966 15.88 78.4833 16.36C78.8833 16.8267 79.4566 17.06 80.2033 17.06ZM87.9684 19C87.8351 19 87.7218 18.9533 87.6284 18.86C87.5351 18.7667 87.4884 18.6533 87.4884 18.52V5.28C87.4884 5.13333 87.5351 5.02 87.6284 4.94C87.7218 4.84667 87.8351 4.8 87.9684 4.8H89.6284C89.7751 4.8 89.8884 4.84667 89.9684 4.94C90.0618 5.02 90.1084 5.13333 90.1084 5.28V18.52C90.1084 18.6533 90.0618 18.7667 89.9684 18.86C89.8884 18.9533 89.7751 19 89.6284 19H87.9684ZM96.6214 19.2C95.3947 19.2 94.4281 18.8 93.7214 18C93.0147 17.1867 92.6614 16.0867 92.6614 14.7V9.08C92.6614 8.94667 92.7081 8.83333 92.8014 8.74C92.8947 8.64667 93.0081 8.6 93.1414 8.6H94.9014C95.0481 8.6 95.1614 8.64667 95.2414 8.74C95.3347 8.82 95.3814 8.93333 95.3814 9.08V14.58C95.3814 16.2333 96.1081 17.06 97.5614 17.06C98.2547 17.06 98.8014 16.84 99.2014 16.4C99.6147 15.96 99.8214 15.3533 99.8214 14.58V9.08C99.8214 8.94667 99.8681 8.83333 99.9614 8.74C100.055 8.64667 100.168 8.6 100.301 8.6H102.061C102.208 8.6 102.321 8.64667 102.401 8.74C102.495 8.82 102.541 8.93333 102.541 9.08V18.52C102.541 18.6533 102.495 18.7667 102.401 18.86C102.321 18.9533 102.208 19 102.061 19H100.441C100.308 19 100.195 18.9533 100.101 18.86C100.008 18.7667 99.9614 18.6533 99.9614 18.52V17.7C99.2147 18.7 98.1014 19.2 96.6214 19.2ZM105.663 19C105.53 19 105.417 18.9533 105.323 18.86C105.23 18.7667 105.183 18.6533 105.183 18.52V9.08C105.183 8.94667 105.23 8.83333 105.323 8.74C105.417 8.64667 105.53 8.6 105.663 8.6H107.303C107.437 8.6 107.55 8.64667 107.643 8.74C107.737 8.83333 107.783 8.94667 107.783 9.08V9.9C108.57 8.9 109.683 8.4 111.123 8.4C112.35 8.4 113.323 8.80667 114.043 9.62C114.763 10.42 115.123 11.5133 115.123 12.9V18.52C115.123 18.6533 115.077 18.7667 114.983 18.86C114.903 18.9533 114.79 19 114.643 19H112.883C112.75 19 112.637 18.9533 112.543 18.86C112.45 18.7667 112.403 18.6533 112.403 18.52V13.02C112.403 12.2333 112.21 11.6267 111.823 11.2C111.45 10.76 110.903 10.54 110.183 10.54C109.477 10.54 108.917 10.76 108.503 11.2C108.103 11.64 107.903 12.2467 107.903 13.02V18.52C107.903 18.6533 107.857 18.7667 107.763 18.86C107.683 18.9533 107.57 19 107.423 19H105.663ZM122.144 19.2C120.664 19.2 119.484 18.7733 118.604 17.92C117.737 17.0533 117.277 15.84 117.224 14.28L117.204 13.78L117.224 13.28C117.29 11.76 117.757 10.5667 118.624 9.7C119.504 8.83333 120.677 8.4 122.144 8.4C123.717 8.4 124.93 8.88 125.784 9.84C126.65 10.8 127.084 12.08 127.084 13.68V14.1C127.084 14.2333 127.037 14.3467 126.944 14.44C126.85 14.5333 126.73 14.58 126.584 14.58H119.944V14.74C119.97 15.4733 120.17 16.0933 120.544 16.6C120.93 17.0933 121.457 17.34 122.124 17.34C122.91 17.34 123.544 17.0333 124.024 16.42C124.144 16.2733 124.237 16.18 124.304 16.14C124.384 16.1 124.497 16.08 124.644 16.08H126.364C126.484 16.08 126.584 16.12 126.664 16.2C126.757 16.2667 126.804 16.3533 126.804 16.46C126.804 16.78 126.61 17.16 126.224 17.6C125.85 18.0267 125.31 18.4 124.604 18.72C123.897 19.04 123.077 19.2 122.144 19.2ZM124.364 12.9V12.84C124.364 12.0533 124.164 11.42 123.764 10.94C123.377 10.46 122.837 10.22 122.144 10.22C121.45 10.22 120.91 10.46 120.524 10.94C120.137 11.42 119.944 12.0533 119.944 12.84V12.9H124.364Z" fill="white" />
</svg>
